Patient4_TMGait_0pt5_01_right_39_GRF.mot
version=1
nRows=78
nColumns=19
inDegrees=no
endheader
time	F1x	F1y	F1z	M1x	M1y	M1z	F2x	F2y	F2z	M2x	M2y	M2z	EC1x	EC1y	EC1z	EC2x	EC2y	EC2z
51.32	-7.7758	788.8343	60.5786	-286.5345	-55.1193	675.038	0.45966	3.5986	-4.3213	1.7361	1.7173	-0.087523	-0.0592	0.0182	-0.0073	-0.0462	0.0165	0.9585
51.3334	-7.2949	776.2651	62.6231	-282.066	-55.7548	662.75	0.068347	2.9757	-3.0237	1.3752	1.3416	0.38236	-0.0592	0.0182	-0.0073	-0.0462	0.0165	0.9585
51.3467	-6.3775	763.2244	64.1337	-277.3451	-55.8194	649.3616	-0.22653	2.4841	-1.922	1.0853	1.0022	0.85149	-0.0592	0.0182	-0.0073	-0.0462	0.0165	0.9585
51.3601	-5.0274	751.0137	65.0339	-272.8678	-55.2893	635.9803	-0.42463	2.1497	-1.0753	0.88181	0.72096	1.2837	-0.0592	0.0182	-0.0073	-0.0462	0.0165	0.9585
51.3734	-3.2921	740.7957	65.3451	-269.0985	-54.2092	623.6201	-0.54544	1.9603	-0.48688	0.75855	0.51286	1.6591	-0.0592	0.0182	-0.0073	-0.0462	0.0165	0.9585
51.3868	-1.2311	733.4222	65.1606	-266.3919	-52.6739	613.0553	-0.61775	1.8817	-0.12311	0.69788	0.38279	1.9609	-0.0592	0.0182	-0.0073	-0.0462	0.0165	0.9585
51.4001	1.1073	729.3257	64.5789	-264.943	-50.773	604.7035	-0.67009	1.8672	0.06258	0.67585	0.32985	2.1743	-0.0592	0.0182	-0.0073	-0.0462	0.0165	0.9585
51.4135	3.6919	728.477	63.7025	-264.7643	-48.5924	598.5879	-0.72106	1.844	0.12232	0.66004	0.3384	2.2558	-0.0592	0.0182	-0.0073	-0.0462	0.0165	0.9585
51.4269	6.5133	730.4333	62.6319	-265.7022	-46.2069	594.3981	-0.78727	1.7292	0.104	0.61444	0.39029	2.1693	-0.0592	0.0182	-0.0073	-0.0462	0.0165	0.9585
51.4402	9.5806	734.445	61.4539	-267.4762	-43.6704	591.5895	-0.86978	1.426	0.043681	0.49954	0.46933	1.8567	-0.0592	0.0182	-0.0073	-0.0462	0.0165	0.9585
51.4536	12.8933	739.617	60.2441	-269.7369	-41.0237	589.5319	-0.96579	0.83166	-0.034609	0.27398	0.56068	1.2409	-0.0592	0.0182	-0.0073	-0.0462	0.0165	0.9585
51.4669	16.4349	745.0798	59.0592	-272.1321	-38.2983	587.6441	-1.0657	-0.14052	-0.109	-0.099275	0.64638	0.2577	-0.0592	0.0182	-0.0073	-0.0462	0.0165	0.9585
51.4803	20.1281	750.1147	57.9734	-274.3542	-35.5662	585.4967	-1.1358	-1.5541	-0.15994	-0.64715	0.70085	-1.1509	-0.0592	0.0182	-0.0073	-0.0462	0.0165	0.9585
51.4936	23.8504	754.2284	57.0686	-276.1711	-32.9279	582.8486	-1.13	-3.4087	-0.17523	-1.3699	0.69579	-2.9736	-0.0592	0.0182	-0.0073	-0.0462	0.0165	0.9585
51.507	27.4227	757.135	56.4386	-277.4286	-30.5185	579.6226	-0.96175	-5.6009	-0.14112	-2.2235	0.58247	-5.1084	-0.0592	0.0182	-0.0073	-0.0462	0.0165	0.9585
51.5204	30.6595	758.705	56.1569	-278.0415	-28.466	575.837	-0.53014	-7.8381	-0.036261	-3.0906	0.29824	-7.2797	-0.0592	0.0182	-0.0073	-0.0462	0.0165	0.9585
51.5337	33.4142	758.8662	56.2646	-277.9642	-26.8686	571.5063	0.28489	-9.5613	0.16109	-3.7514	-0.22294	-8.9661	-0.0592	0.0182	-0.0073	-0.0462	0.0165	0.9585
51.5471	35.5916	757.5024	56.7597	-277.1517	-25.7798	566.5697	1.6072	-9.8613	0.47023	-3.8509	-1.043	-9.3088	-0.0592	0.0182	-0.0073	-0.0462	0.0165	0.9585
51.5604	37.1838	754.4082	57.5858	-275.5432	-25.1823	560.8605	3.5232	-7.4241	0.89245	-2.8772	-2.1913	-7.0602	-0.0592	0.0182	-0.0073	-0.0462	0.0165	0.9585
51.5738	38.2475	749.3054	58.6436	-273.065	-25.0031	554.1424	6.043	-0.52465	1.408	-0.15591	-3.6457	-0.59174	-0.0592	0.0182	-0.0073	-0.0462	0.0165	0.9585
51.5871	38.8829	741.8231	59.7784	-269.6218	-25.1119	546.1053	9.012	12.8699	1.9412	5.1081	-5.2666	12.0258	-0.0592	0.0182	-0.0073	-0.0462	0.0165	0.9585
51.6005	39.1993	731.4261	60.8096	-265.0686	-25.3556	536.3168	12.0347	34.8107	2.3593	13.7194	-6.7655	32.734	-0.0592	0.0182	-0.0073	-0.0462	0.0165	0.9585
51.6139	39.2876	717.3936	61.4991	-259.1998	-25.5437	524.2166	14.3372	66.912	2.4481	26.3088	-7.6294	63.0712	-0.0592	0.0182	-0.0073	-0.0462	0.0165	0.9585
51.6272	39.2188	698.8422	61.5838	-251.7554	-25.4766	509.1326	14.6639	109.6704	1.9806	43.0693	-7.1553	103.5262	-0.0592	0.0182	-0.0073	-0.0462	0.0165	0.9585
51.6406	39.0237	674.8633	60.7797	-242.4681	-24.9495	490.384	11.8212	161.7729	0.71796	63.4828	-4.6625	152.8768	-0.0592	0.0182	-0.0073	-0.0462	0.0165	0.9585
51.6539	38.6636	644.7282	58.8647	-231.1252	-23.8213	467.4263	5.7612	219.8167	-1.5418	86.1994	0.048177	207.8818	-0.0592	0.0182	-0.0073	-0.0462	0.0165	0.9585
51.6673	38.0556	608.0779	55.7389	-217.6302	-22.0456	439.9771	-2.1982	278.3495	-5.0366	109.0631	6.6673	263.2168	-0.0592	0.0182	-0.0073	-0.0462	0.0165	0.9585
51.6806	37.0432	565.043	51.4979	-202.0371	-19.7291	408.1227	-10.4599	332.1648	-9.6448	130.034	14.4019	313.6958	-0.0592	0.0182	-0.0073	-0.0462	0.0165	0.9585
51.694	35.4377	516.2988	46.4088	-184.5634	-17.096	372.3519	-17.7878	378.9362	-14.7009	148.2219	22.0926	356.9109	-0.0592	0.0182	-0.0073	-0.0462	0.0165	0.9585
51.7074	33.0988	462.9616	40.857	-165.5606	-14.4383	333.4768	-23.5308	419.0787	-19.5722	163.8195	28.8693	393.1733	-0.0592	0.0182	-0.0073	-0.0462	0.0165	0.9585
51.7207	29.9479	406.4854	35.1811	-145.4966	-11.9934	292.5327	-27.4895	454.6004	-23.7468	177.6356	34.1747	424.3615	-0.0592	0.0182	-0.0073	-0.0462	0.0165	0.9585
51.7341	25.9701	348.5655	29.6372	-124.9306	-9.927	250.7265	-29.7438	488.0594	-27.0481	190.6658	37.8937	452.8951	-0.0592	0.0182	-0.0073	-0.0462	0.0165	0.9585
51.7474	21.2056	291.0456	24.3961	-104.4852	-8.3275	209.3633	-30.5687	521.8063	-29.5891	203.7908	40.2649	481.0288	-0.0592	0.0182	-0.0073	-0.0462	0.0165	0.9585
51.7608	15.8093	235.8305	19.5953	-84.8161	-7.2302	169.7723	-30.3897	557.3981	-31.7622	217.5484	41.8394	510.3312	-0.0592	0.0182	-0.0073	-0.0462	0.0165	0.9585
51.7741	10.0829	184.7726	15.3466	-66.573	-6.5991	133.2327	-29.7244	595.2253	-34.1087	232.0007	43.3318	541.3421	-0.0592	0.0182	-0.0073	-0.0462	0.0165	0.9585
51.7875	4.4968	139.4508	11.7338	-50.3228	-6.3199	100.8198	-29.1268	634.561	-37.1016	246.7786	45.3947	573.592	-0.0592	0.0182	-0.0073	-0.0462	0.0165	0.9585
51.8009	-0.42082	100.8818	8.7881	-36.4442	-6.2156	73.2098	-29.0698	673.9193	-41.0119	261.2405	48.4574	605.9122	-0.0592	0.0182	-0.0073	-0.0462	0.0165	0.9585
51.8142	-4.2274	69.3667	6.4728	-25.0704	-6.0982	50.5892	-29.8008	711.4353	-45.7662	274.6428	52.5468	636.7582	-0.0592	0.0182	-0.0073	-0.0462	0.0165	0.9585
51.8276	-6.6732	44.6172	4.6698	-16.1255	-5.7975	32.7568	-31.2824	745.1641	-50.9862	286.2591	57.3089	664.4582	-0.0592	0.0182	-0.0073	-0.0462	0.0165	0.9585
51.8409	-7.7168	25.9981	3.2462	-9.3972	-5.212	19.2885	-33.2607	773.2535	-56.1093	295.4394	62.1492	687.3771	-0.0592	0.0182	-0.0073	-0.0462	0.0165	0.9585
51.8543	-7.4882	12.7043	2.0964	-4.6004	-4.3264	9.6294	-35.3928	794.107	-60.623	301.659	66.4929	704.0711	-0.0592	0.0182	-0.0073	-0.0462	0.0165	0.9585
51.8676	-6.3846	3.9102	1.1913	-1.4359	-3.2777	3.2081	-37.3332	806.6553	-64.133	304.6095	69.8705	713.5257	-0.0592	0.0182	-0.0073	-0.0462	0.0165	0.9585
51.881	-4.9364	-1.2442	0.53736	0.41249	-2.2698	-0.57184	-38.7717	810.6233	-66.4361	304.2857	71.9997	715.4103	-0.0592	0.0182	-0.0073	-0.0462	0.0165	0.9585
51.8944	-3.5072	-3.7139	0.11785	1.2931	-1.4302	-2.3853	-39.4743	806.7097	-67.4493	301.0486	72.7372	710.2544	-0.0592	0.0182	-0.0073	-0.0462	0.0165	0.9585
51.9077	-2.2953	-4.3861	-0.12054	1.5302	-0.79572	-2.8764	-39.3162	796.5892	-67.2234	295.6155	72.1014	699.446	-0.0592	0.0182	-0.0073	-0.0462	0.0165	0.9585
51.9211	-1.3756	-3.9989	-0.22115	1.3918	-0.36744	-2.596	-38.2967	782.634	-65.9233	288.9441	70.2543	684.9908	-0.0592	0.0182	-0.0073	-0.0462	0.0165	0.9585
51.9344	-0.74459	-3.0973	-0.23482	1.0738	-0.11037	-1.9433	-36.5446	767.4775	-63.8342	282.0604	67.4984	669.1425	-0.0592	0.0182	-0.0073	-0.0462	0.0165	0.9585
51.9478	-0.35937	-2.0455	-0.19622	0.70374	0.0143	-1.1859	-34.2705	753.584	-61.2839	275.8976	64.1964	654.0186	-0.0592	0.0182	-0.0073	-0.0462	0.0165	0.9585
51.9611	-0.16035	-1.0641	-0.13024	0.35608	0.044837	-0.48266	-31.7352	742.8954	-58.5898	271.1672	60.7144	641.2961	-0.0592	0.0182	-0.0073	-0.0462	0.0165	0.9585
51.9745	-0.08758	-0.26272	-0.058427	0.067522	0.018593	0.088274	-29.1708	736.6321	-56.0184	268.2934	57.3605	632.0387	-0.0592	0.0182	-0.0073	-0.0462	0.0165	0.9585
51.9879	-0.088505	0.33077	0.006474	-0.15047	-0.037407	0.50107	-26.7497	735.2642	-53.7668	267.4078	54.3579	626.6717	-0.0592	0.0182	-0.0073	-0.0462	0.0165	0.9585
52.0012	-0.12922	0.73596	0.056722	-0.30098	-0.10082	0.76949	-24.5874	738.5454	-51.9762	268.3675	51.8545	625.0184	-0.0592	0.0182	-0.0073	-0.0462	0.0165	0.9585
52.0146	-0.19133	0.98944	0.093347	-0.39365	-0.15915	0.9215	-22.7207	745.582	-50.7267	270.7912	49.915	626.3526	-0.0592	0.0182	-0.0073	-0.0462	0.0165	0.9585
52.0279	-0.26246	1.1341	0.11667	-0.44278	-0.20587	0.9915	-21.1332	755.0281	-50.0387	274.1366	48.5306	629.5779	-0.0592	0.0182	-0.0073	-0.0462	0.0165	0.9585
52.0413	-0.34663	1.1981	0.13195	-0.4589	-0.24755	0.99851	-19.7339	765.2853	-49.8577	277.7844	47.606	633.3711	-0.0592	0.0182	-0.0073	-0.0462	0.0165	0.9585
52.0546	-0.44338	1.1854	0.13953	-0.44568	-0.28819	0.93782	-18.3969	774.7601	-50.086	281.1339	47.0046	636.4128	-0.0592	0.0182	-0.0073	-0.0462	0.0165	0.9585
52.068	-0.5567	1.0842	0.14142	-0.39938	-0.33239	0.80577	-16.9716	782.0794	-50.5946	283.6791	46.562	637.5749	-0.0592	0.0182	-0.0073	-0.0462	0.0165	0.9585
52.0814	-0.67683	0.85943	0.1408	-0.30667	-0.38333	0.5744	-15.3021	786.2515	-51.2633	285.0662	46.1262	636.0388	-0.0592	0.0182	-0.0073	-0.0462	0.0165	0.9585
52.0947	-0.7994	0.45781	0.13794	-0.14754	-0.4411	0.19879	-13.263	786.776	-51.9667	285.1282	45.5496	631.394	-0.0592	0.0182	-0.0073	-0.0462	0.0165	0.9585
52.1081	-0.9132	-0.18004	0.13319	0.10057	-0.49963	-0.3815	-10.7555	783.6815	-52.5972	283.8982	44.7153	623.6641	-0.0592	0.0182	-0.0073	-0.0462	0.0165	0.9585
52.1214	-0.98414	-1.0987	0.11716	0.45558	-0.53478	-1.2175	-7.7398	777.4926	-53.0598	281.5937	43.5397	613.2821	-0.0592	0.0182	-0.0073	-0.0462	0.0165	0.9585
52.1348	-0.95779	-2.3064	0.085965	0.92262	-0.51799	-2.3238	-4.2227	769.0683	-53.3177	278.5523	42.0043	600.9614	-0.0592	0.0182	-0.0073	-0.0462	0.0165	0.9585
52.1481	-0.7554	-3.7325	0.030031	1.477	-0.40663	-3.6404	-0.25587	759.4535	-53.406	275.1735	40.1606	587.568	-0.0592	0.0182	-0.0073	-0.0462	0.0165	0.9585
52.1615	-0.28111	-5.1978	-0.054106	2.0492	-0.15617	-5.0074	4.0685	749.7629	-53.4163	271.8762	38.1198	574.0235	-0.0592	0.0182	-0.0073	-0.0462	0.0165	0.9585
52.1749	0.58537	-6.3563	-0.17926	2.5025	0.29278	-6.1082	8.6466	741.0457	-53.4454	269.0474	35.9998	561.1993	-0.0592	0.0182	-0.0073	-0.0462	0.0165	0.9585
52.1882	1.96	-6.6551	-0.34931	2.6202	0.98692	-6.4256	13.3502	734.1308	-53.5792	266.9807	33.9188	549.81	-0.0592	0.0182	-0.0073	-0.0462	0.0165	0.9585
52.2016	3.9223	-5.2963	-0.56767	2.092	1.9549	-5.2148	18.025	729.4471	-53.8635	265.8087	31.9722	540.278	-0.0592	0.0182	-0.0073	-0.0462	0.0165	0.9585
52.2149	6.4593	-1.2092	-0.82045	0.50597	3.1745	-1.4917	22.4817	726.915	-54.312	265.4606	30.2395	532.6662	-0.0592	0.0182	-0.0073	-0.0462	0.0165	0.9585
52.2283	9.4144	6.8926	-1.0745	-2.6317	4.5473	5.9275	26.5041	725.9057	-54.889	265.6518	28.7677	526.6524	-0.0592	0.0182	-0.0073	-0.0462	0.0165	0.9585
52.2416	12.3839	20.3627	-1.2675	-7.8403	5.8547	18.3002	29.8589	725.2989	-55.5173	265.9095	27.5866	521.5767	-0.0592	0.0182	-0.0073	-0.0462	0.0165	0.9585
52.255	14.6992	40.3915	-1.3228	-15.5751	6.7651	36.7403	32.3154	723.6147	-56.0721	265.6284	26.6969	516.5328	-0.0592	0.0182	-0.0073	-0.0462	0.0165	0.9585
52.2684	15.4584	67.6187	-1.1569	-26.078	6.8487	61.8749	33.6763	719.1782	-56.4009	264.1404	26.0748	510.4544	-0.0592	0.0182	-0.0073	-0.0462	0.0165	0.9585
52.2817	13.8087	101.7414	-0.64949	-39.2295	5.6624	93.4815	33.8259	710.3597	-56.3339	260.8145	25.663	502.2634	-0.0592	0.0182	-0.0073	-0.0462	0.0165	0.9585
52.2951	9.6755	141.3289	0.33747	-54.4694	3.0438	130.2572	32.8073	695.9159	-55.6964	255.1961	25.3494	491.0594	-0.0592	0.0182	-0.0073	-0.0462	0.0165	0.9585
52.3084	3.9471	183.4973	2.0566	-70.6655	-0.90148	169.4623	30.8345	675.3017	-54.3404	247.1246	24.9723	476.3286	-0.0592	0.0182	-0.0073	-0.0462	0.0165	0.9585
52.3218	-2.289	224.3405	4.7991	-86.3044	-6.0068	207.3153	28.2726	648.851	-52.1987	236.7929	24.3609	458.0824	-0.0592	0.0182	-0.0073	-0.0462	0.0165	0.9585
52.3351	-8.2686	261.2323	8.3088	-100.3887	-11.7023	241.2368	25.5796	617.8667	-49.3098	224.7605	23.368	436.9639	-0.0592	0.0182	-0.0073	-0.0462	0.0165	0.9585
52.3485	-13.5043	293.4358	12.1704	-112.659	-17.3968	270.4912	23.1956	584.1981	-45.8582	211.779	21.9384	414.0077	-0.0592	0.0182	-0.0073	-0.0462	0.0165	0.9585
